<?xml version="1.0" encoding="UTF-8" standalone="no"?>
<!-- Generator: Adobe Illustrator 16.0.0, SVG Export Plug-In . SVG Version: 6.00 Build 0)  -->

<svg
   xmlns:dc="http://purl.org/dc/elements/1.1/"
   xmlns:cc="http://creativecommons.org/ns#"
   xmlns:rdf="http://www.w3.org/1999/02/22-rdf-syntax-ns#"
   xmlns:svg="http://www.w3.org/2000/svg"
   xmlns="http://www.w3.org/2000/svg"
   xmlns:sodipodi="http://sodipodi.sourceforge.net/DTD/sodipodi-0.dtd"
   xmlns:inkscape="http://www.inkscape.org/namespaces/inkscape"
   version="1.1"
   id="Capa_1"
   x="0px"
   y="0px"
   width="357.0918"
   height="694.15198"
   viewBox="0 0 357.0918 694.15197"
   xml:space="preserve"
   sodipodi:docname="smartphone.svg"
   inkscape:version="0.92.2 2405546, 2018-03-11"><metadata
   id="metadata41"><rdf:RDF><cc:Work
       rdf:about=""><dc:format>image/svg+xml</dc:format><dc:type
         rdf:resource="http://purl.org/dc/dcmitype/StillImage" /></cc:Work></rdf:RDF></metadata><defs
   id="defs39" /><sodipodi:namedview
   pagecolor="#ffffff"
   bordercolor="#666666"
   borderopacity="1"
   objecttolerance="10"
   gridtolerance="10"
   guidetolerance="10"
   inkscape:pageopacity="0"
   inkscape:pageshadow="2"
   inkscape:window-width="1920"
   inkscape:window-height="1016"
   id="namedview37"
   showgrid="false"
   inkscape:zoom="9.0763774"
   inkscape:cx="324.63011"
   inkscape:cy="360.99941"
   inkscape:window-x="0"
   inkscape:window-y="27"
   inkscape:window-maximized="1"
   inkscape:current-layer="Capa_1"
   inkscape:snap-bbox="true"
   inkscape:snap-object-midpoints="true"
   inkscape:object-paths="true"
   inkscape:snap-intersection-paths="true"
   inkscape:object-nodes="true"
   inkscape:snap-smooth-nodes="true"
   inkscape:snap-others="true"
   inkscape:measure-start="328.201,353.665"
   inkscape:measure-end="357.092,353.335" />

<rect
   style="opacity:1;fill:#960018;fill-opacity:1;fill-rule:evenodd;stroke:#010101;stroke-width:0.13460945;stroke-linecap:round;stroke-linejoin:round;stroke-miterlimit:4;stroke-dasharray:none;stroke-dashoffset:0;stroke-opacity:1"
   id="rect831"
   width="299.86539"
   height="533.19867"
   x="-374.28442"
   y="64.212303" /><g
   id="g6"
   transform="translate(-1.0108295,599.13758)">
</g>
<g
   id="g8"
   transform="translate(-1.0108295,599.13758)">
</g>
<g
   id="g10"
   transform="translate(-1.0108295,599.13758)">
</g>
<g
   id="g12"
   transform="translate(-1.0108295,599.13758)">
</g>
<g
   id="g14"
   transform="translate(-1.0108295,599.13758)">
</g>
<g
   id="g16"
   transform="translate(-1.0108295,599.13758)">
</g>
<g
   id="g18"
   transform="translate(-1.0108295,599.13758)">
</g>
<g
   id="g20"
   transform="translate(-1.0108295,599.13758)">
</g>
<g
   id="g22"
   transform="translate(-1.0108295,599.13758)">
</g>
<g
   id="g24"
   transform="translate(-1.0108295,599.13758)">
</g>
<g
   id="g26"
   transform="translate(-1.0108295,599.13758)">
</g>
<g
   id="g28"
   transform="translate(-1.0108295,599.13758)">
</g>
<g
   id="g30"
   transform="translate(-1.0108295,599.13758)">
</g>
<g
   id="g32"
   transform="translate(-1.0108295,599.13758)">
</g>
<g
   id="g34"
   transform="translate(-1.0108295,599.13758)">
</g>
<g
   id="g4"
   transform="matrix(17.563044,0,0,19.832913,-128.80736,0)">
	<path
   d="M 25.302,0 H 9.698 C 8.398,0 7.334,1.063 7.334,2.364 V 32.635 C 7.334,33.936 8.398,35 9.698,35 h 15.604 c 1.3,0 2.364,-1.062 2.364,-2.364 V 2.364 C 27.666,1.063 26.602,0 25.302,0 Z M 15.004,1.704 h 4.992 c 0.158,0 0.286,0.128 0.286,0.287 0,0.158 -0.128,0.286 -0.286,0.286 h -4.992 c -0.158,0 -0.286,-0.128 -0.286,-0.286 0,-0.159 0.128,-0.287 0.286,-0.287 z M 17.5,33.818 c -0.653,0 -1.182,-0.529 -1.182,-1.183 0,-0.654 0.529,-1.182 1.182,-1.182 0.653,0 1.182,0.528 1.182,1.182 0,0.654 -0.529,1.183 -1.182,1.183 z m 8.521,-3.193 H 8.979 V 3.749 h 17.042 z"
   id="path2"
   inkscape:connector-curvature="0" />
</g></svg>